<?xml version="1.0" encoding="UTF-8"?>
<svg id="Lag_2" data-name="Lag 2" xmlns="http://www.w3.org/2000/svg" viewBox="0 0 253.57 40.82">
  <defs>
    <style>
      .cls-1 {
        fill: #fff;
      }
    </style>
  </defs>
  <g id="Lag_1-2" data-name="Lag 1">
    <g>
      <polygon class="cls-1" points="93.33 .7 112.29 25.2 112.29 6.7 107.3 6.71 107.3 .7 123.27 .7 123.27 6.71 118.78 6.7 118.78 40.2 114.5 39.74 93.83 13.7 93.83 34.2 98.32 34.2 98.32 40.2 82.85 40.2 82.84 34.2 87.12 33.74 87.34 7.95 86.52 6.77 82.84 6.71 82.85 .7 93.33 .7"/>
      <path class="cls-1" d="M70.37.7v6c-.93.29-4.23-.76-4,.75l9.43,26.46,3.55.29v6h-14.97v-6s4.49,0,4.49,0l-2.24-6c-.37-.55-.93-.45-1.48-.52-2.45-.3-9.59-.3-12.03,0-2.73.34-2.11,4.57-3.72,6.52h4.99s0,6,0,6h-14.97v-6s3.25-.5,3.25-.5l9.72-26.76-4.49-.24V.7h22.46ZM64.38,22.2l-5.24-15.01-5.24,15.01h10.48Z"/>
      <path class="cls-1" d="M214.6.7v6c-.93.29-4.23-.76-4,.75l9.43,26.46,3.55.29v6h-14.97v-6s4.49,0,4.49,0l-2.24-6c-.37-.55-.93-.45-1.48-.52-2.45-.3-9.59-.3-12.03,0-2.73.34-2.11,4.57-3.72,6.52h4.99s0,6,0,6h-14.97v-6s3.25-.5,3.25-.5l9.72-26.76-4.49-.24V.7h22.46ZM208.61,22.2l-5.24-15.01-5.24,15.01h10.48Z"/>
      <path class="cls-1" d="M166.94.7c12.87,1.52,16.53,16.23,4.96,22.5l5.35,10.92,4.42.08v6h-8.74l-7.81-14.92-5.91-.08v9h4.99s0,6,0,6h-15.97v-6s4.27-.47,4.27-.47l.22-25.78-.82-1.18-3.68-.07V.7c5.93.51,12.93-.69,18.72,0ZM159.2,19.2c4.86.71,12.31.05,12.52-6.24s-7.9-6.53-12.52-6.26v12.5Z"/>
      <path class="cls-1" d="M0,40.2v-6s4.27-.47,4.27-.47l.22-25.78-.82-1.18-3.68-.07V.7h18.72c20.17,0,25.98,29.36,7.73,37.24-1.52.66-6.81,2.26-8.23,2.26H0ZM10.98,6.7v27.5c9.5.94,19.32-2.81,19.5-13.74S20.4,5.99,10.98,6.7Z"/>
      <path class="cls-1" d="M226.7,27.83c1.77-1.66,6.7-.81,7.28,2.24.45,2.38-1.82,3.5,2.55,4.41,4.53.94,12.3-.73,9.75-6.77-2.16-5.11-17.11-4.32-18.98-13.48-2.87-14.04,16.25-18.13,23.76-10.3,4.9,5.11.14,12.01-4.77,8.28-2.86-2.17.97-5.22-4.03-5.96-4.32-.63-10.97,1.74-7.69,6.7,3.77,5.71,17.3,3.94,18.85,14.12,2.12,13.95-16.84,17.38-25.3,9.85-2.3-2.05-3.85-6.78-1.4-9.09Z"/>
      <polygon class="cls-1" points="143.23 .7 143.24 6.71 138.46 7.17 138.24 32.95 139.06 34.13 143.24 34.2 143.23 40.2 126.76 40.2 126.76 34.2 131.75 34.2 131.75 6.7 126.76 6.71 126.76 .7 143.23 .7"/>
    </g>
  </g>
</svg>